name C:/MyDriveSym/Projects/mobilecap/Data\Session20210825_0002\mocap\ForceDataProcessed\walking2_forces.mot
datacolumns 19
datarows 9
range 0.00000000 0.00400000
endheader 
time	R_ground_force_vx	R_ground_force_vy	R_ground_force_vz	R_ground_force_px	R_ground_force_py	R_ground_force_pz	R_ground_torque_x	R_ground_torque_y	R_ground_torque_z	L_ground_force_vx	L_ground_force_vy	L_ground_force_vz	L_ground_force_px	L_ground_force_py	L_ground_force_pz	L_ground_torque_x	L_ground_torque_y	L_ground_torque_z	
          0.00000000	         -3.92112900	         48.34593600	          4.81691600	          0.14967600	          0.00600000	         -0.17641300	          0.00000000	          0.29989400	          0.00000000	          0.00000000	          0.00000000	          0.00000000	          0.71969200	          0.00000000	         -0.19341500	          0.00000000	          0.00000000	          0.00000000	
          0.00050000	         -4.13061300	         49.55362800	          4.84392800	          0.14967600	          0.00600000	         -0.17641300	          0.00000000	          0.30022500	          0.00000000	          0.00000000	          0.00000000	          0.00000000	          0.71969200	          0.00000000	         -0.19341500	          0.00000000	          0.00000000	          0.00000000	
          0.00100000	         -4.34329100	         50.77527400	          4.87084800	          0.14967600	          0.00600000	         -0.17641300	          0.00000000	          0.30063900	          0.00000000	          0.00000000	          0.00000000	          0.00000000	          0.71969200	          0.00000000	         -0.19341500	          0.00000000	          0.00000000	          0.00000000	
          0.00150000	         -4.55918800	         52.01093100	          4.89767000	          0.14967600	          0.00600000	         -0.17641300	          0.00000000	          0.30113300	          0.00000000	          0.00000000	          0.00000000	          0.00000000	          0.71969200	          0.00000000	         -0.19341500	          0.00000000	          0.00000000	          0.00000000	
          0.00200000	         -4.77832700	         53.26065200	          4.92438600	          0.15027700	          0.00600000	         -0.17636000	          0.00000000	          0.30170600	          0.00000000	          0.00000000	          0.00000000	          0.00000000	          0.71969200	          0.00000000	         -0.19341500	          0.00000000	          0.00000000	          0.00000000	
          0.00250000	         -5.00073000	         54.52449100	          4.95099100	          0.15086200	          0.00600000	         -0.17630900	          0.00000000	          0.30235500	          0.00000000	          0.00000000	          0.00000000	          0.00000000	          0.71969200	          0.00000000	         -0.19341500	          0.00000000	          0.00000000	          0.00000000	
          0.00300000	         -5.22642100	         55.80249900	          4.97748000	          0.15143100	          0.00600000	         -0.17625800	          0.00000000	          0.30307700	          0.00000000	          0.00000000	          0.00000000	          0.00000000	          0.71969200	          0.00000000	         -0.19341500	          0.00000000	          0.00000000	          0.00000000	
          0.00350000	         -5.45542300	         57.09472800	          5.00384400	          0.15198600	          0.00600000	         -0.17620900	          0.00000000	          0.30387200	          0.00000000	          0.00000000	          0.00000000	          0.00000000	          0.71969200	          0.00000000	         -0.19341500	          0.00000000	          0.00000000	          0.00000000	
          0.00400000	         -5.68775900	         58.40122600	          5.03007900	          0.15252700	          0.00600000	         -0.17616000	          0.00000000	          0.30473600	          0.00000000	          0.00000000	          0.00000000	          0.00000000	          0.71969200	          0.00000000	         -0.19341500	          0.00000000	          0.00000000	          0.00000000	
